<?xml version="1.0" encoding="UTF-8" standalone="no"?>
<!-- Created with Inkscape (http://www.inkscape.org/) -->

<svg
   xmlns:dc="http://purl.org/dc/elements/1.1/"
   xmlns:cc="http://creativecommons.org/ns#"
   xmlns:rdf="http://www.w3.org/1999/02/22-rdf-syntax-ns#"
   xmlns:svg="http://www.w3.org/2000/svg"
   xmlns="http://www.w3.org/2000/svg"
   xmlns:sodipodi="http://sodipodi.sourceforge.net/DTD/sodipodi-0.dtd"
   xmlns:inkscape="http://www.inkscape.org/namespaces/inkscape"
   width="526.59509"
   height="172.40283"
   id="svg2"
   version="1.1"
   inkscape:version="0.48.5 r10040"
   sodipodi:docname="tittle_turtle_logo.svg">
  <defs
     id="defs4" />
  <sodipodi:namedview
     id="base"
     pagecolor="#000000"
     bordercolor="#666666"
     borderopacity="1.0"
     inkscape:pageopacity="0"
     inkscape:pageshadow="2"
     inkscape:zoom="1.4"
     inkscape:cx="333.32421"
     inkscape:cy="-1.7553077"
     inkscape:document-units="px"
     inkscape:current-layer="layer1"
     showgrid="false"
     inkscape:window-width="1261"
     inkscape:window-height="746"
     inkscape:window-x="-8"
     inkscape:window-y="-8"
     inkscape:window-maximized="1"
     fit-margin-top="0"
     fit-margin-left="0"
     fit-margin-right="0"
     fit-margin-bottom="0"
     showguides="true"
     inkscape:guide-bbox="true">
    <sodipodi:guide
       orientation="1,0"
       position="-22.142857,85.581222"
       id="guide3036" />
    <sodipodi:guide
       orientation="-0.70710678,0.70710678"
       position="-22.142857,76.295512"
       id="guide3038" />
    <sodipodi:guide
       orientation="1,0"
       position="225,96.295512"
       id="guide3040" />
    <sodipodi:guide
       orientation="0,1"
       position="-47.142857,0.5812274"
       id="guide3042" />
    <sodipodi:guide
       orientation="1,0"
       position="257.14286,168.57143"
       id="guide3044" />
  </sodipodi:namedview>
  <metadata
     id="metadata7">
    <rdf:RDF>
      <cc:Work
         rdf:about="">
        <dc:format>image/svg+xml</dc:format>
        <dc:type
           rdf:resource="http://purl.org/dc/dcmitype/StillImage" />
        <dc:title />
      </cc:Work>
    </rdf:RDF>
  </metadata>
  <g
     inkscape:label="Layer 1"
     inkscape:groupmode="layer"
     id="layer1"
     transform="translate(-0.37275188,0.74049764)">
    <g
       id="Layer_2-1"
       transform="translate(-407.15591,606.34535)" />
    <g
       transform="matrix(1.9374123,0,0,1.9374123,-114.90468,-92.75402)"
       id="g3091">
      <path
         style="fill:#ffffff"
         inkscape:connector-curvature="0"
         d="m 75.632,106.599 v 6.845 h 5.533 v 1.698 h -5.533 v 14.952 c 0,1.99 0.612,2.986 1.835,2.986 1.113,0 1.953,-0.996 2.52,-2.986 h 1.698 c -0.327,2.083 -1.06,3.566 -2.191,4.45 -1.132,0.887 -2.949,1.328 -5.45,1.328 -1.788,0 -3.108,-0.282 -3.955,-0.848 -0.85,-0.566 -1.374,-1.234 -1.575,-2 -0.202,-0.768 -0.302,-1.744 -0.302,-2.931 v -14.952 h -3.065 v -1.698 h 3.065 v -5.558 l 7.42,-1.286 z"
         id="path3093" />
      <path
         style="fill:#ffffff"
         inkscape:connector-curvature="0"
         d="m 96.866,112.76 v 21.059 H 99 v 1.671 H 86.758 v -1.671 h 2.631 v -18.675 h -2.631 v -1.698 h 3.48 c 1.808,0 3.322,-0.114 4.544,-0.344 1.224,-0.227 1.918,-0.342 2.084,-0.342"
         id="path3095" />
      <path
         style="fill:#ffffff"
         inkscape:connector-curvature="0"
         d="m 111.79,106.599 v 6.845 h 5.531 v 1.698 h -5.531 v 14.952 c 0,1.99 0.61,2.986 1.835,2.986 1.112,0 1.952,-0.996 2.52,-2.986 h 1.696 c -0.328,2.083 -1.059,3.566 -2.19,4.45 -1.132,0.887 -2.947,1.328 -5.45,1.328 -1.788,0 -3.107,-0.282 -3.957,-0.848 -0.85,-0.566 -1.372,-1.234 -1.573,-2 -0.202,-0.768 -0.302,-1.744 -0.302,-2.931 v -14.952 h -3.065 v -1.698 h 3.065 v -5.558 l 7.421,-1.286 z"
         id="path3097" />
      <path
         style="fill:#ffffff"
         inkscape:connector-curvature="0"
         d="m 129.917,106.599 v 6.845 h 5.532 v 1.698 h -5.532 v 14.952 c 0,1.99 0.613,2.986 1.836,2.986 1.113,0 1.953,-0.996 2.518,-2.986 h 1.699 c -0.328,2.083 -1.059,3.566 -2.19,4.45 -1.132,0.887 -2.949,1.328 -5.45,1.328 -1.789,0 -3.11,-0.282 -3.957,-0.848 -0.85,-0.566 -1.374,-1.234 -1.573,-2 -0.202,-0.768 -0.304,-1.744 -0.304,-2.931 v -14.952 h -3.065 v -1.698 h 3.065 v -5.558 l 7.421,-1.286 z"
         id="path3099" />
      <path
         style="fill:#ffffff"
         inkscape:connector-curvature="0"
         d="m 148.209,98.247 v 35.572 h 2.304 v 1.671 h -12.242 v -1.671 h 2.463 v -33.382 h -2.463 v -1.67 c 2.301,0 4.574,-0.092 6.818,-0.274 l 2.217,-0.246 h 0.903 z"
         id="path3101" />
      <path
         style="fill:#ffffff"
         inkscape:connector-curvature="0"
         d="m 175.239,123.167 h -13.474 v 3.567 c 0,2.802 0.249,4.737 0.754,5.809 0.501,1.071 1.656,1.606 3.462,1.606 1.59,0 3.073,-0.513 4.451,-1.535 1.381,-1.021 2.433,-2.61 3.163,-4.765 h 1.644 c -0.674,2.775 -1.926,4.856 -3.751,6.245 -1.826,1.387 -4.017,2.079 -6.572,2.079 -3.489,0 -6.277,-1.195 -8.365,-3.59 -2.091,-2.395 -3.137,-5.155 -3.137,-8.28 0,-2.998 1.06,-5.671 3.177,-8.019 2.118,-2.35 4.764,-3.524 7.94,-3.524 2.741,0 5.121,0.858 7.149,2.574 2.025,1.717 3.213,4.329 3.559,7.833 m -13.474,-1.781 h 5.889 v -2.301 c 0,-1.988 -0.269,-3.279 -0.807,-3.873 -0.541,-0.593 -1.274,-0.891 -2.204,-0.891 -0.88,0 -1.576,0.265 -2.098,0.794 -0.518,0.53 -0.78,1.871 -0.78,4.026 v 2.245 z"
         id="path3103" />
    </g>
    <path
       style="fill:#ffffff"
       inkscape:connector-curvature="0"
       d="m 74.71373,46.99153 c -2.95068,-1.86767 -6.07185,-2.8015 -9.34414,-2.8015 -1.3155,0 -2.64844,0.15112 -4.01238,0.44948 -4.69435,1.0307 -8.33475,3.57452 -10.927,7.62371 -2.5942,4.05307 -3.36335,8.46262 -2.31715,13.23059 1.02489,4.69242 3.57646,8.37156 7.64891,11.03938 2.93324,1.92966 6.03116,2.89255 9.29182,2.89255 1.25351,0 2.53801,-0.14336 3.84577,-0.4301 4.76603,-1.0462 8.48199,-3.64234 11.13237,-7.79227 2.65619,-4.14413 3.46603,-8.5653 2.43726,-13.25384 -1.03457,-4.69048 -3.61521,-8.3425 -7.75546,-10.958 z"
       id="path3105" />
    <g
       transform="matrix(1.9374123,0,0,1.9374123,-114.90468,-92.75402)"
       id="g3107">
      <path
         style="fill:#2271b9"
         inkscape:connector-curvature="0"
         d="m 89.285,59.826 c 1.629,-0.333 2.077,-0.514 4.089,-0.319 0,0 0.909,-7.068 -0.581,-9.827 -1.49,-2.76 -2.109,-2.122 -2.109,-2.122 0,0 0.838,1.274 0.835,2.23 0,0 -1.278,-2.04 -2.128,-2.295 0,0 1.169,1.764 0.85,2.613 0,0 -0.743,-1.752 -1.593,-1.832 0,0 0.85,1.089 0.531,2.257 -0.319,1.169 -1.57,1.043 -1.157,3.036 0.413,1.993 1.475,4.558 1.263,6.259 z"
         id="path3109" />
      <path
         style="fill:#2271b9"
         inkscape:connector-curvature="0"
         d="m 104.848,65.307 -4.219,5.89 c 1.843,1.587 3.058,3.617 3.595,6.073 0.364,1.647 0.365,3.25 0.03,4.799 l 6.897,2.19 c 0.707,-2.758 0.769,-5.639 0.131,-8.54 -0.923,-4.21 -3.142,-7.765 -6.434,-10.412 z"
         id="path3111" />
      <path
         style="fill:#2271b9"
         inkscape:connector-curvature="0"
         d="m 74.935,84.503 6.86,-2.28 c -0.003,-0.009 -0.006,-0.018 -0.01,-0.026 -0.679,-3.097 -0.166,-6.006 1.522,-8.642 0.563,-0.882 1.234,-1.614 1.956,-2.28 l -4.328,-5.873 c -1.417,1.195 -2.665,2.615 -3.711,4.252 -2.726,4.25 -3.585,9.123 -2.495,14.093 0.058,0.257 0.14,0.503 0.206,0.756 z"
         id="path3113" />
      <path
         style="fill:#2271b9"
         inkscape:connector-curvature="0"
         d="m 87.208,69.856 c 0.993,-0.568 2.057,-1.03 3.252,-1.293 0.869,-0.19 1.739,-0.287 2.589,-0.287 1.962,0 3.841,0.536 5.606,1.544 l 4.232,-5.909 c -4.252,-2.644 -9.082,-3.48 -13.979,-2.404 -2.202,0.483 -4.214,1.332 -6.023,2.481 l 4.323,5.868 z"
         id="path3115" />
      <path
         style="fill:#2271b9"
         inkscape:connector-curvature="0"
         d="m 103.491,84.353 c -0.242,0.531 -0.515,1.056 -0.846,1.57 -1.717,2.688 -4.159,4.398 -7.26,5.079 -0.363,0.08 -0.727,0.135 -1.092,0.181 l 0.05,7.245 c 0.859,-0.068 1.724,-0.177 2.592,-0.367 4.973,-1.093 9.056,-3.946 11.789,-8.232 0.679,-1.059 1.243,-2.154 1.694,-3.276 l -6.927,-2.2 z"
         id="path3117" />
      <path
         style="fill:#2271b9"
         inkscape:connector-curvature="0"
         d="M 91.886,91.207 C 90.094,91.039 88.374,90.45 86.77,89.394 84.843,88.131 83.439,86.488 82.556,84.508 l -6.873,2.285 c 1.412,3.526 3.826,6.481 7.111,8.634 2.828,1.861 5.929,2.872 9.141,3.039 l -0.049,-7.259 z"
         id="path3119" />
      <path
         style="fill:#2271b9"
         inkscape:connector-curvature="0"
         d="m 112.971,78.042 c 0,0 0.498,1.256 -0.066,4.867 0,0 2.636,0.475 4.122,0.688 0.651,0.093 3.369,0.285 4.88,-1.021 1.134,-0.979 1.849,-3.016 1.912,-3.594 0.038,-0.344 -1.478,1.134 -1.534,0.797 -0.06,-0.354 0.253,-1.208 0.827,-2.196 -0.709,0 -1.552,1.185 -1.784,1.075 -0.451,-0.213 0.861,-1.753 0.579,-1.713 -3.044,0.424 -0.508,3.141 -8.936,1.097 z"
         id="path3121" />
      <path
         style="fill:#2271b9"
         inkscape:connector-curvature="0"
         d="m 89.321,99.994 c 0,0 3.327,0.851 4.956,0.283 0,0 1.205,8.214 0.354,10.692 -0.85,2.479 -1.394,2.346 -1.394,2.346 l 0.189,-1.566 -1.487,0.85 0.637,-1.416 -1.699,0.638 0.709,-1.558 c 0,0 -2.337,-0.992 -1.347,-3.541 0.994,-2.551 -0.918,-6.728 -0.918,-6.728 z"
         id="path3123" />
      <path
         style="fill:#2271b9"
         inkscape:connector-curvature="0"
         d="m 73.009,76.368 c 0,0 -1.021,3.279 -0.541,4.936 0,0 -8.266,0.775 -10.696,-0.202 -2.432,-0.977 -2.269,-1.514 -2.269,-1.514 l 1.553,0.271 -0.773,-1.529 1.383,0.71 -0.547,-1.73 1.518,0.788 c 0,0 1.112,-2.282 3.605,-1.16 2.496,1.122 6.767,-0.57 6.767,-0.57 z"
         id="path3125" />
      <path
         style="fill:#2271b9"
         inkscape:connector-curvature="0"
         d="m 104.971,63.03 c 0,0 1.839,-1.063 3.114,-3.188 1.274,-2.124 3.047,-2.689 4.108,-2.902 1.063,-0.213 4.389,0.354 4.389,0.354 0,0 1.063,0.284 0.923,1.983 -0.143,1.699 -1.11,0.456 -1.672,1.521 -0.561,1.064 -1.398,1.227 -1.398,1.227 0,0 1.718,0.339 2.323,-0.072 0.604,-0.41 -0.033,1.36 -0.458,1.644 -0.425,0.284 -2.762,0.779 -3.329,0.779 -0.564,0 -3.824,2.69 -3.824,2.69 0,0 -1.626,-1.629 -4.176,-4.036 z"
         id="path3127" />
    </g>
    <g
       transform="matrix(1.9374123,0,0,1.9374123,131.29901,-172.88707)"
       id="g3129">
      <path
         style="fill:#2271b9"
         inkscape:connector-curvature="0"
         d="m 75.633,148.265 v 6.845 h 5.533 v 1.697 h -5.533 v 14.954 c 0,1.989 0.612,2.984 1.836,2.984 1.113,0 1.953,-0.995 2.52,-2.984 h 1.696 c -0.327,2.082 -1.058,3.565 -2.189,4.45 -1.132,0.886 -2.949,1.327 -5.45,1.327 -1.788,0 -3.108,-0.282 -3.957,-0.849 -0.85,-0.565 -1.372,-1.233 -1.573,-1.999 -0.203,-0.768 -0.304,-1.744 -0.304,-2.93 v -14.954 h -3.065 v -1.697 h 3.065 v -5.558 l 7.421,-1.286 z"
         id="path3131" />
      <path
         style="fill:#2271b9"
         inkscape:connector-curvature="0"
         d="m 110.544,155.111 v 20.43 h 3.122 v 1.615 h -4.601 c -2.301,0 -3.794,0.06 -4.477,0.178 -0.687,0.119 -1.193,0.188 -1.521,0.206 v -4.491 h -0.108 c -0.731,1.388 -1.832,2.482 -3.301,3.286 -1.471,0.802 -3.062,1.205 -4.779,1.205 -1.644,0 -3.044,-0.33 -4.203,-0.985 -1.159,-0.658 -1.889,-1.384 -2.19,-2.18 -0.302,-0.791 -0.451,-2.056 -0.451,-3.791 v -13.775 h -3.122 v -1.697 H 95.51 v 14.596 c 0,2.228 0.094,3.697 0.275,4.41 0.182,0.712 0.704,1.066 1.561,1.066 0.895,0 1.898,-0.393 3.013,-1.178 1.113,-0.784 1.844,-1.679 2.19,-2.683 0.346,-1.004 0.52,-2.41 0.52,-4.217 v -10.298 h -3.642 v -1.697 h 11.117 z"
         id="path3133" />
      <path
         style="fill:#2271b9"
         inkscape:connector-curvature="0"
         d="m 125.223,154.754 v 6.053 h 0.107 c 0.438,-2.155 1.162,-3.756 2.164,-4.807 1.006,-1.048 2.118,-1.573 3.343,-1.573 1.185,0 2.154,0.425 2.901,1.273 0.75,0.85 1.123,1.893 1.123,3.135 0,1.059 -0.283,1.912 -0.85,2.56 -0.565,0.649 -1.25,0.972 -2.053,0.972 -0.804,0 -1.494,-0.302 -2.066,-0.901 -0.576,-0.604 -0.864,-1.271 -0.864,-2.001 0,-0.913 0.159,-1.553 0.48,-1.916 0.317,-0.365 0.479,-0.604 0.479,-0.712 0,-0.202 -0.146,-0.302 -0.438,-0.302 -0.913,0 -1.784,0.897 -2.615,2.688 -0.83,1.791 -1.245,4.698 -1.245,8.72 v 7.543 h 4.079 v 1.671 h -14.405 v -1.671 h 2.85 v -18.679 h -2.85 v -1.697 h 3.643 c 1.938,0 3.361,-0.058 4.273,-0.178 l 0.986,-0.178 h 0.958 z"
         id="path3135" />
      <path
         style="fill:#2271b9"
         inkscape:connector-curvature="0"
         d="m 147.842,148.265 v 6.845 h 5.533 v 1.697 h -5.533 v 14.954 c 0,1.989 0.61,2.984 1.836,2.984 1.111,0 1.951,-0.995 2.52,-2.984 h 1.695 c -0.328,2.082 -1.059,3.565 -2.19,4.45 -1.132,0.886 -2.947,1.327 -5.45,1.327 -1.786,0 -3.107,-0.282 -3.957,-0.849 -0.85,-0.565 -1.372,-1.233 -1.573,-1.999 -0.202,-0.768 -0.302,-1.744 -0.302,-2.93 v -14.954 h -3.065 v -1.697 h 3.065 v -5.558 l 7.421,-1.286 z"
         id="path3137" />
      <path
         style="fill:#2271b9"
         inkscape:connector-curvature="0"
         d="m 166.135,139.912 v 35.573 h 2.3 v 1.671 h -12.241 v -1.671 h 2.466 v -33.382 h -2.466 v -1.671 c 2.3,0 4.574,-0.092 6.817,-0.273 l 2.221,-0.247 h 0.903 z"
         id="path3139" />
      <path
         style="fill:#2271b9"
         inkscape:connector-curvature="0"
         d="m 193.165,164.832 h -13.474 v 3.568 c 0,2.803 0.249,4.737 0.754,5.808 0.501,1.071 1.656,1.607 3.462,1.607 1.59,0 3.074,-0.513 4.451,-1.536 1.378,-1.021 2.434,-2.609 3.163,-4.764 h 1.644 c -0.677,2.775 -1.929,4.855 -3.754,6.245 -1.826,1.386 -4.014,2.08 -6.572,2.08 -3.485,0 -6.273,-1.196 -8.365,-3.592 -2.091,-2.394 -3.137,-5.154 -3.137,-8.279 0,-2.999 1.059,-5.671 3.18,-8.019 2.118,-2.35 4.764,-3.524 7.94,-3.524 2.738,0 5.121,0.858 7.146,2.574 2.028,1.717 3.213,4.328 3.562,7.832 m -13.474,-1.78 h 5.886 v -2.301 c 0,-1.988 -0.269,-3.279 -0.807,-3.873 -0.538,-0.593 -1.271,-0.891 -2.204,-0.891 -0.876,0 -1.573,0.265 -2.095,0.794 -0.521,0.529 -0.78,1.871 -0.78,4.025 v 2.246 z"
         id="path3141" />
    </g>
  </g>
</svg>
