<?xml version="1.0" encoding="utf-8"?>
<!-- Generator: Adobe Illustrator 16.0.0, SVG Export Plug-In . SVG Version: 6.00 Build 0)  -->
<!DOCTYPE svg PUBLIC "-//W3C//DTD SVG 1.1//EN" "http://www.w3.org/Graphics/SVG/1.1/DTD/svg11.dtd">
<svg version="1.1" id="Layer_5" xmlns="http://www.w3.org/2000/svg" xmlns:xlink="http://www.w3.org/1999/xlink" x="0px" y="0px"
	 width="262.333px" height="220px" viewBox="0 0 262.333 220" enable-background="new 0 0 262.333 220" xml:space="preserve">
<g>
	<g>
		<path fill="#2271B9" d="M78.502,97.975v6.845h5.533v1.698h-5.533v14.953c0,1.99,0.612,2.986,1.835,2.986
			c1.113,0,1.953-0.996,2.52-2.986h1.698c-0.327,2.083-1.06,3.566-2.191,4.45c-1.132,0.887-2.949,1.328-5.45,1.328
			c-1.788,0-3.108-0.282-3.955-0.848c-0.85-0.566-1.374-1.234-1.575-2c-0.202-0.768-0.302-1.744-0.302-2.931v-14.953h-3.065v-1.698
			h3.065v-5.558L78.502,97.975z"/>
		<path fill="#2271B9" d="M99.736,104.136v21.059h2.134v1.671H89.628v-1.671h2.631V106.52h-2.631v-1.698h3.48
			c1.808,0,3.322-0.115,4.544-0.344C98.876,104.25,99.57,104.136,99.736,104.136"/>
		<path fill="#2271B9" d="M114.66,97.975v6.845h5.531v1.698h-5.531v14.953c0,1.99,0.61,2.986,1.835,2.986
			c1.112,0,1.952-0.996,2.52-2.986h1.696c-0.328,2.083-1.059,3.566-2.19,4.45c-1.132,0.887-2.947,1.328-5.45,1.328
			c-1.788,0-3.107-0.282-3.957-0.848c-0.85-0.566-1.372-1.234-1.573-2c-0.202-0.768-0.302-1.744-0.302-2.931v-14.953h-3.065v-1.698
			h3.065v-5.558L114.66,97.975z"/>
		<path fill="#2271B9" d="M132.788,97.975v6.845h5.532v1.698h-5.532v14.953c0,1.99,0.613,2.986,1.836,2.986
			c1.113,0,1.953-0.996,2.518-2.986h1.699c-0.328,2.083-1.059,3.566-2.19,4.45c-1.132,0.887-2.949,1.328-5.45,1.328
			c-1.789,0-3.11-0.282-3.957-0.848c-0.85-0.566-1.374-1.234-1.573-2c-0.202-0.768-0.304-1.744-0.304-2.931v-14.953H122.3v-1.698
			h3.065v-5.558L132.788,97.975z"/>
		<path fill="#2271B9" d="M151.08,89.622v35.573h2.304v1.671h-12.242v-1.671h2.463V91.813h-2.463v-1.67
			c2.301,0,4.574-0.092,6.818-0.274l2.217-0.247H151.08z"/>
		<path fill="#2271B9" d="M178.109,114.542h-13.474v3.567c0,2.802,0.249,4.737,0.754,5.809c0.501,1.071,1.656,1.606,3.462,1.606
			c1.59,0,3.073-0.513,4.451-1.535c1.381-1.021,2.433-2.61,3.163-4.765h1.644c-0.674,2.775-1.926,4.856-3.751,6.245
			c-1.826,1.387-4.017,2.079-6.572,2.079c-3.489,0-6.277-1.195-8.365-3.59c-2.091-2.395-3.137-5.155-3.137-8.28
			c0-2.998,1.06-5.671,3.177-8.019c2.118-2.35,4.764-3.524,7.94-3.524c2.741,0,5.121,0.858,7.149,2.574
			C176.575,108.427,177.763,111.038,178.109,114.542 M164.635,112.762h5.889v-2.301c0-1.988-0.269-3.279-0.807-3.873
			c-0.541-0.593-1.274-0.891-2.204-0.891c-0.88,0-1.576,0.265-2.098,0.793c-0.518,0.53-0.78,1.871-0.78,4.026V112.762z"/>
	</g>
	<path d="M92.155,51.201c1.629-0.333,2.077-0.514,4.089-0.319c0,0,0.909-7.068-0.581-9.828s-2.109-2.122-2.109-2.122
		s0.838,1.275,0.835,2.23c0,0-1.278-2.04-2.128-2.294c0,0,1.169,1.764,0.85,2.613c0,0-0.743-1.752-1.593-1.832
		c0,0,0.85,1.088,0.531,2.257c-0.319,1.168-1.57,1.042-1.157,3.036S92.367,49.501,92.155,51.201z"/>
	<path d="M107.718,56.683l-4.219,5.889c1.843,1.587,3.058,3.617,3.595,6.074c0.364,1.647,0.365,3.25,0.03,4.799l6.897,2.19
		c0.707-2.758,0.769-5.638,0.131-8.54C113.229,62.885,111.01,59.329,107.718,56.683z"/>
	<path d="M77.805,75.879l6.86-2.28c-0.003-0.009-0.006-0.018-0.01-0.027c-0.679-3.097-0.166-6.006,1.522-8.642
		c0.563-0.881,1.234-1.614,1.956-2.28l-4.328-5.874c-1.417,1.196-2.665,2.616-3.711,4.252c-2.726,4.25-3.585,9.124-2.495,14.093
		C77.657,75.38,77.739,75.626,77.805,75.879z"/>
	<path d="M90.078,61.231c0.993-0.568,2.057-1.03,3.252-1.292c0.869-0.191,1.739-0.287,2.589-0.287c1.962,0,3.841,0.536,5.606,1.543
		l4.232-5.909c-4.252-2.643-9.082-3.48-13.979-2.404c-2.202,0.483-4.214,1.332-6.023,2.481L90.078,61.231z"/>
	<path d="M106.361,75.729c-0.242,0.531-0.515,1.056-0.846,1.571c-1.717,2.688-4.159,4.398-7.26,5.079
		c-0.363,0.081-0.727,0.135-1.092,0.181l0.05,7.246c0.859-0.069,1.724-0.177,2.592-0.368c4.973-1.092,9.056-3.946,11.789-8.232
		c0.679-1.059,1.243-2.154,1.694-3.276L106.361,75.729z"/>
	<path d="M94.756,82.582c-1.792-0.167-3.512-0.757-5.116-1.813c-1.927-1.263-3.331-2.906-4.214-4.886l-6.873,2.285
		c1.412,3.527,3.826,6.482,7.111,8.634c2.828,1.862,5.929,2.873,9.141,3.04L94.756,82.582z"/>
	<path fill="#2271B9" d="M100.742,63.506c-1.523-0.963-3.134-1.446-4.823-1.446c-0.679,0-1.367,0.078-2.071,0.232
		c-2.423,0.532-4.302,1.844-5.64,3.934c-1.339,2.092-1.736,4.369-1.196,6.829c0.529,2.422,1.846,4.322,3.948,5.698
		c1.514,0.996,3.113,1.494,4.796,1.494c0.647,0,1.31-0.075,1.985-0.222c2.46-0.54,4.378-1.88,5.746-4.022
		c1.371-2.138,1.789-4.42,1.258-6.841C104.211,66.74,102.879,64.856,100.742,63.506z"/>
	<path d="M115.841,69.417c0,0,0.498,1.255-0.066,4.867c0,0,2.636,0.475,4.122,0.687c0.651,0.093,3.369,0.285,4.88-1.021
		c1.134-0.979,1.849-3.016,1.912-3.593c0.038-0.344-1.478,1.133-1.534,0.796c-0.06-0.354,0.253-1.208,0.827-2.196
		c-0.709,0-1.552,1.185-1.784,1.075c-0.451-0.212,0.861-1.752,0.579-1.712C121.733,68.745,124.269,71.462,115.841,69.417z"/>
	<path d="M92.191,91.369c0,0,3.327,0.851,4.956,0.284c0,0,1.205,8.214,0.354,10.692c-0.85,2.479-1.394,2.345-1.394,2.345
		l0.189-1.566l-1.487,0.85l0.637-1.417l-1.699,0.638l0.709-1.558c0,0-2.337-0.992-1.347-3.541
		C94.103,95.547,92.191,91.369,92.191,91.369z"/>
	<path d="M75.879,67.743c0,0-1.021,3.279-0.541,4.936c0,0-8.266,0.776-10.696-0.202c-2.432-0.977-2.269-1.514-2.269-1.514
		l1.553,0.272l-0.773-1.529l1.383,0.709l-0.547-1.73l1.518,0.789c0,0,1.112-2.283,3.605-1.16
		C71.608,69.436,75.879,67.743,75.879,67.743z"/>
	<path d="M107.841,54.405c0,0,1.839-1.063,3.114-3.187c1.274-2.124,3.047-2.69,4.108-2.903c1.063-0.212,4.389,0.354,4.389,0.354
		s1.063,0.284,0.923,1.983c-0.143,1.7-1.11,0.457-1.672,1.521c-0.561,1.064-1.398,1.227-1.398,1.227s1.718,0.338,2.323-0.072
		c0.604-0.411-0.033,1.36-0.458,1.643c-0.425,0.283-2.762,0.779-3.329,0.779c-0.564,0-3.824,2.69-3.824,2.69
		S110.391,56.813,107.841,54.405z"/>
	<g>
		<path d="M78.503,139.641v6.846h5.533v1.697h-5.533v14.953c0,1.99,0.612,2.984,1.836,2.984c1.113,0,1.953-0.994,2.52-2.984h1.696
			c-0.327,2.082-1.058,3.566-2.189,4.451s-2.949,1.326-5.45,1.326c-1.788,0-3.108-0.281-3.957-0.848
			c-0.85-0.566-1.372-1.234-1.573-2c-0.203-0.768-0.304-1.744-0.304-2.93v-14.953h-3.065v-1.697h3.065v-5.559L78.503,139.641z"/>
		<path d="M113.415,146.486v20.43h3.122v1.615h-4.601c-2.301,0-3.794,0.061-4.477,0.178c-0.687,0.119-1.193,0.188-1.521,0.207
			v-4.492h-0.108c-0.731,1.389-1.832,2.482-3.301,3.287c-1.471,0.801-3.062,1.205-4.779,1.205c-1.644,0-3.044-0.33-4.203-0.986
			c-1.159-0.658-1.889-1.383-2.19-2.18c-0.302-0.791-0.451-2.055-0.451-3.791v-13.775h-3.122v-1.697h10.597v14.596
			c0,2.229,0.094,3.697,0.275,4.41s0.704,1.066,1.561,1.066c0.895,0,1.898-0.393,3.013-1.178c1.113-0.783,1.844-1.678,2.19-2.682
			s0.52-2.41,0.52-4.217v-10.299h-3.642v-1.697H113.415z"/>
		<path d="M128.093,146.131v6.053h0.107c0.438-2.156,1.162-3.756,2.164-4.807c1.006-1.049,2.118-1.574,3.343-1.574
			c1.185,0,2.154,0.426,2.901,1.273c0.75,0.85,1.123,1.893,1.123,3.135c0,1.059-0.283,1.912-0.85,2.561
			c-0.565,0.648-1.25,0.971-2.053,0.971c-0.804,0-1.494-0.301-2.066-0.9c-0.576-0.605-0.864-1.271-0.864-2.002
			c0-0.912,0.159-1.553,0.48-1.916c0.317-0.365,0.479-0.604,0.479-0.711c0-0.203-0.146-0.303-0.438-0.303
			c-0.913,0-1.784,0.898-2.615,2.689c-0.83,1.791-1.245,4.697-1.245,8.719v7.543h4.079v1.672h-14.405v-1.672h2.85v-18.678h-2.85
			v-1.697h3.643c1.938,0,3.361-0.059,4.273-0.178l0.986-0.178H128.093z"/>
		<path d="M150.712,139.641v6.846h5.533v1.697h-5.533v14.953c0,1.99,0.61,2.984,1.836,2.984c1.111,0,1.951-0.994,2.52-2.984h1.695
			c-0.328,2.082-1.059,3.566-2.19,4.451s-2.947,1.326-5.45,1.326c-1.786,0-3.107-0.281-3.957-0.848s-1.372-1.234-1.573-2
			c-0.202-0.768-0.302-1.744-0.302-2.93v-14.953h-3.065v-1.697h3.065v-5.559L150.712,139.641z"/>
		<path d="M169.005,131.287v35.574h2.3v1.67h-12.241v-1.67h2.466v-33.383h-2.466v-1.67c2.3,0,4.574-0.092,6.817-0.273l2.221-0.248
			H169.005z"/>
		<path d="M196.035,156.207h-13.474v3.568c0,2.803,0.249,4.738,0.754,5.809c0.501,1.07,1.656,1.607,3.462,1.607
			c1.59,0,3.074-0.514,4.451-1.537c1.378-1.02,2.434-2.609,3.163-4.764h1.644c-0.677,2.775-1.929,4.855-3.754,6.246
			c-1.826,1.385-4.014,2.08-6.572,2.08c-3.485,0-6.273-1.197-8.365-3.592c-2.091-2.395-3.137-5.154-3.137-8.279
			c0-3,1.059-5.672,3.18-8.02c2.118-2.35,4.764-3.523,7.94-3.523c2.738,0,5.121,0.857,7.146,2.574
			C194.501,150.094,195.686,152.703,196.035,156.207 M182.561,154.428h5.886v-2.301c0-1.988-0.269-3.279-0.807-3.873
			c-0.538-0.592-1.271-0.891-2.204-0.891c-0.876,0-1.573,0.266-2.095,0.795c-0.521,0.529-0.78,1.871-0.78,4.025V154.428z"/>
	</g>
</g>
</svg>
